<svg width="152" height="47" viewBox="0 0 152 47" fill="none" xmlns="http://www.w3.org/2000/svg">
<rect x="1.5" y="1.5" width="149" height="44" rx="22" fill="#00DFAF" stroke="#00DFAF" stroke-width="3"/>
<path d="M63.796 18.39C63.112 17.634 61.654 16.554 60.592 15.87L59.044 17.436C60.16 18.228 61.564 19.38 62.194 20.154L63.796 18.39ZM62.626 22.944C61.15 24.582 59.548 26.238 58.558 27.21L59.926 29.028C61.15 27.822 62.608 26.256 63.868 24.798L62.626 22.944ZM70.078 19.992H72.616C72.292 21.018 71.842 22.044 71.482 22.728C71.986 22.926 72.868 23.358 73.3 23.61C74.002 22.314 74.866 20.46 75.37 18.66L73.786 17.742L73.372 17.85H67.18C67.468 17.004 67.702 16.122 67.9 15.222L65.668 14.808C65.11 17.688 64.03 20.46 62.5 22.116C63.04 22.368 64.084 22.944 64.516 23.286C65.2 22.404 65.848 21.27 66.388 19.992H67.828V21.846C67.828 23.844 66.622 27.822 61.762 29.766C62.14 30.162 62.806 31.062 63.058 31.566C66.694 29.982 68.53 26.922 68.962 25.32C69.304 26.922 70.978 30.09 74.2 31.566C74.542 31.008 75.154 30.126 75.568 29.604C71.158 27.678 70.078 23.754 70.078 21.828V19.992ZM76.666 24.636L78.862 26.886C79.168 26.418 79.582 25.77 79.996 25.176C80.77 24.15 82.048 22.368 82.768 21.468C83.29 20.802 83.632 20.712 84.262 21.414C85.108 22.368 86.458 24.078 87.574 25.41C88.708 26.742 90.238 28.488 91.534 29.712L93.388 27.552C91.678 26.022 90.148 24.402 88.996 23.142C87.934 21.99 86.494 20.136 85.27 18.948C83.956 17.67 82.786 17.796 81.526 19.218C80.41 20.514 79.024 22.368 78.196 23.232C77.656 23.808 77.206 24.222 76.666 24.636Z" fill="white"/>
</svg>
