<svg width="240" height="240" viewBox="0 0 240 240" fill="none" xmlns="http://www.w3.org/2000/svg">
<g clip-path="url(#clip0_137_17)">
<path d="M130.314 175.073C147.055 201.83 182.317 209.948 209.073 193.206C235.83 176.465 243.948 141.203 227.206 114.446C210.465 87.6902 175.203 79.5718 148.446 96.3135" stroke="#FF7CA2" stroke-width="6"/>
<path d="M145.38 150.324V156.552H130.404V150.324H145.38ZM126.012 162.096H130.404V160.656H145.38V162.06H149.988V146.256H126.012V162.096ZM141.672 134.628C142.788 135.6 143.976 136.68 145.128 137.832C140.988 138.012 136.812 138.192 132.924 138.336C134.652 135.708 136.452 132.684 137.964 129.84L133.032 128.256C131.808 131.424 129.756 135.384 127.74 138.516C125.724 138.552 123.852 138.624 122.196 138.66L122.448 142.98C129.144 142.728 139.188 142.332 148.692 141.828C149.664 143.016 150.456 144.132 150.996 145.104L154.704 142.26C152.868 139.164 148.584 135.024 145.02 132.108L141.672 134.628ZM176.232 151.692V143.772C177.852 146.688 179.796 149.388 181.956 151.692H176.232ZM166.08 151.692C168.204 149.388 170.112 146.724 171.732 143.844V151.692H166.08ZM189.876 139.812V135.492H176.232V128.544H171.732V135.492H158.196V139.812H169.176C166.404 145.356 161.868 150.54 156.792 153.312C157.8 154.14 159.168 155.796 159.924 156.876C161.904 155.616 163.812 154.068 165.54 152.268V156.048H171.732V162.132H176.232V156.048H182.208V151.944C184.008 153.852 185.988 155.472 188.076 156.768C188.832 155.544 190.308 153.744 191.388 152.88C186.24 150.18 181.632 145.212 178.824 139.812H189.876Z" fill="white"/>
</g>
<defs>
<clipPath id="clip0_137_17">
<rect width="240" height="240" fill="white"/>
</clipPath>
</defs>
</svg>
