<svg width="152" height="47" viewBox="0 0 152 47" fill="none" xmlns="http://www.w3.org/2000/svg">
<rect x="1.5" y="1.5" width="149" height="44" rx="22" fill="#00DFAF" stroke="#00DFAF" stroke-width="3"/>
<path d="M50.08 24.888V22.98H54.076V24.888H50.08ZM43.924 24.888V22.98H47.83V24.888H43.924ZM47.83 19.2V21.018H43.924V19.2H47.83ZM54.076 19.2V21.018H50.08V19.2H54.076ZM50.08 17.148V14.736H47.83V17.148H41.782V27.894H43.924V26.94H47.83V31.548H50.08V26.94H54.076V27.804H56.308V17.148H50.08ZM64.678 15.726L61.78 15.69C61.942 16.41 62.014 17.274 62.014 18.12C62.014 19.668 61.834 24.402 61.834 26.814C61.834 29.892 63.742 31.188 66.694 31.188C70.798 31.188 73.354 28.776 74.506 27.048L72.868 25.068C71.572 27.03 69.682 28.74 66.712 28.74C65.308 28.74 64.228 28.146 64.228 26.328C64.228 24.096 64.372 20.064 64.444 18.12C64.48 17.4 64.57 16.482 64.678 15.726ZM85.918 19.236C85.36 22.674 83.974 25.356 81.454 26.85C81.958 27.228 82.786 28.056 83.11 28.47C85.072 27.102 86.44 25.122 87.34 22.548C88.132 25.068 89.446 27.138 91.66 28.452C92.056 27.93 92.83 27.174 93.334 26.814C89.59 24.942 88.51 20.604 88.24 15.51H83.29V17.526H86.422C86.476 18.138 86.548 18.75 86.62 19.344L85.918 19.236ZM81.454 17.886C80.842 17.04 79.528 15.924 78.448 15.168L76.864 16.464C77.926 17.256 79.204 18.444 79.762 19.308L81.454 17.886ZM81.004 21.738H76.846V23.7H78.916V27.498C78.124 28.11 77.224 28.704 76.45 29.154L77.494 31.386C78.484 30.63 79.276 29.928 80.068 29.226C81.238 30.63 82.714 31.134 84.928 31.224C87.07 31.314 90.688 31.278 92.848 31.17C92.956 30.558 93.28 29.514 93.514 29.01C91.12 29.19 87.07 29.244 84.964 29.154C83.092 29.082 81.742 28.596 81.004 27.39V21.738ZM97.852 16.374L97.942 18.696C98.41 18.624 99.04 18.57 99.4 18.552C100.228 18.498 101.776 18.444 102.496 18.408C102.082 19.254 101.56 20.478 101.056 21.666C97.438 21.828 94.9 23.952 94.9 26.742C94.9 28.56 96.088 29.658 97.672 29.658C98.896 29.658 99.76 29.154 100.48 28.074C101.11 27.084 101.866 25.284 102.514 23.754C104.062 23.97 105.502 24.51 106.78 25.212C106.186 26.85 104.926 28.56 102.208 29.73L104.116 31.296C106.528 30.036 107.896 28.452 108.688 26.418C109.246 26.832 109.768 27.246 110.236 27.678L111.28 25.176C110.758 24.816 110.11 24.402 109.354 23.97C109.534 22.962 109.624 21.846 109.696 20.64L107.338 20.37C107.392 20.91 107.392 21.63 107.338 22.332C107.32 22.53 107.302 22.728 107.284 22.944C106.114 22.44 104.782 22.008 103.378 21.792C104.026 20.262 104.71 18.696 105.178 17.922C105.322 17.67 105.538 17.436 105.79 17.166L104.35 16.05C104.044 16.176 103.576 16.284 103.126 16.302C102.28 16.374 100.372 16.464 99.346 16.464C98.95 16.464 98.338 16.428 97.852 16.374ZM97.006 26.4C97.006 25.266 98.14 24.042 100.156 23.736C99.652 24.87 99.166 26.004 98.698 26.67C98.374 27.12 98.122 27.3 97.762 27.3C97.348 27.3 97.006 26.994 97.006 26.4Z" fill="white"/>
</svg>
