<svg width="240" height="240" viewBox="0 0 240 240" fill="none" xmlns="http://www.w3.org/2000/svg">
<g clip-path="url(#clip0_136_16)">
<path d="M130.314 175.073C147.055 201.83 182.317 209.948 209.073 193.206C235.83 176.464 243.948 141.203 227.206 114.446C210.465 87.6901 175.203 79.5718 148.446 96.3135" stroke="#FF7CA2" stroke-width="6"/>
<path d="M40.944 132.612C40.944 131.46 41.88 130.524 43.032 130.524C44.148 130.524 45.084 131.46 45.084 132.612C45.084 133.728 44.148 134.664 43.032 134.664C41.88 134.664 40.944 133.728 40.944 132.612ZM38.712 132.612C38.712 132.864 38.748 133.08 38.784 133.296C38.028 133.404 37.236 133.44 36.732 133.44H20.064C18.876 133.44 16.824 133.296 15.78 133.152V138.228C16.68 138.156 18.408 138.084 20.064 138.084H36.804C36.336 141.18 34.968 145.248 32.592 148.236C29.676 151.908 25.608 155.04 18.48 156.696L22.404 161.016C28.812 158.928 33.636 155.364 36.876 151.044C39.9 147.048 41.448 141.468 42.276 137.94C42.384 137.616 42.456 137.256 42.564 136.86C42.708 136.896 42.888 136.896 43.032 136.896C45.372 136.896 47.316 134.952 47.316 132.612C47.316 130.236 45.372 128.292 43.032 128.292C40.656 128.292 38.712 130.236 38.712 132.612ZM52.536 133.476C52.608 134.484 52.608 135.96 52.608 136.968V154.572C52.608 156.3 52.5 159.432 52.5 159.612H57.468C57.468 159.504 57.468 158.676 57.432 157.668H74.784C74.784 158.712 74.748 159.54 74.748 159.612H79.716C79.716 159.468 79.644 156.012 79.644 154.608V136.968C79.644 135.888 79.644 134.556 79.716 133.476C78.42 133.548 77.052 133.548 76.152 133.548H56.352C55.38 133.548 54.012 133.512 52.536 133.476ZM57.432 138.12H74.82V153.06H57.432V138.12ZM88.536 133.476C88.608 134.484 88.608 135.96 88.608 136.968V154.572C88.608 156.3 88.5 159.432 88.5 159.612H93.468C93.468 159.504 93.468 158.676 93.432 157.668H110.784C110.784 158.712 110.748 159.54 110.748 159.612H115.716C115.716 159.468 115.644 156.012 115.644 154.608V136.968C115.644 135.888 115.644 134.556 115.716 133.476C114.42 133.548 113.052 133.548 112.152 133.548H92.352C91.38 133.548 90.012 133.512 88.536 133.476ZM93.432 138.12H110.82V153.06H93.432V138.12ZM123.312 142.332V147.984C124.644 147.876 127.056 147.804 129.108 147.804H148.44C149.952 147.804 151.788 147.948 152.652 147.984V142.332C151.716 142.404 150.132 142.548 148.44 142.548H129.108C127.236 142.548 124.608 142.44 123.312 142.332ZM184.044 129.516L181.2 130.668C182.1 131.964 183.108 133.872 183.828 135.312L183.576 135.168C182.784 135.42 181.56 135.6 180.444 135.6H173.244C173.28 135.528 173.316 135.492 173.352 135.42C173.748 134.628 174.684 133.008 175.548 131.748L170.256 130.02C169.932 131.244 169.176 132.9 168.636 133.764C166.872 136.86 163.704 141.54 157.404 145.356L161.436 148.38C165 145.968 168.132 142.8 170.544 139.668H180.66C180.084 142.332 177.996 146.688 175.548 149.46C172.38 153.06 168.384 156.192 161.04 158.388L165.288 162.204C172.056 159.504 176.376 156.228 179.796 152.016C183.072 148.02 185.124 143.232 186.096 140.028C186.384 139.128 186.888 138.12 187.284 137.436L184.224 135.564L186.888 134.448C186.24 133.116 184.944 130.812 184.044 129.516ZM188.292 127.896L185.448 129.048C186.456 130.416 187.608 132.504 188.364 134.016L191.208 132.792C190.56 131.532 189.228 129.228 188.292 127.896Z" fill="white"/>
</g>
<defs>
<clipPath id="clip0_136_16">
<rect width="240" height="240" fill="white"/>
</clipPath>
</defs>
</svg>
