<svg width="258" height="55" viewBox="0 0 258 55" fill="none" xmlns="http://www.w3.org/2000/svg">
<rect x="5.97363" y="8.5" width="251" height="46" rx="23" stroke="white"/>
<rect x="1.5" y="1.5" width="249" height="44" rx="22" fill="#00DFAF" stroke="#00DFAF" stroke-width="3"/>
<path d="M97.6736 25.32V23.2H102.114V25.32H97.6736ZM90.8336 25.32V23.2H95.1736V25.32H90.8336ZM95.1736 19V21.02H90.8336V19H95.1736ZM102.114 19V21.02H97.6736V19H102.114ZM97.6736 16.72V14.04H95.1736V16.72H88.4536V28.66H90.8336V27.6H95.1736V32.72H97.6736V27.6H102.114V28.56H104.594V16.72H97.6736ZM113.894 15.14L110.674 15.1C110.854 15.9 110.934 16.86 110.934 17.8C110.934 19.52 110.734 24.78 110.734 27.46C110.734 30.88 112.854 32.32 116.134 32.32C120.694 32.32 123.534 29.64 124.814 27.72L122.994 25.52C121.554 27.7 119.454 29.6 116.154 29.6C114.594 29.6 113.394 28.94 113.394 26.92C113.394 24.44 113.554 19.96 113.634 17.8C113.674 17 113.774 15.98 113.894 15.14ZM137.494 19.04C136.874 22.86 135.334 25.84 132.534 27.5C133.094 27.92 134.014 28.84 134.374 29.3C136.554 27.78 138.074 25.58 139.074 22.72C139.954 25.52 141.414 27.82 143.874 29.28C144.314 28.7 145.174 27.86 145.734 27.46C141.574 25.38 140.374 20.56 140.074 14.9H134.574V17.14H138.054C138.114 17.82 138.194 18.5 138.274 19.16L137.494 19.04ZM132.534 17.54C131.854 16.6 130.394 15.36 129.194 14.52L127.434 15.96C128.614 16.84 130.034 18.16 130.654 19.12L132.534 17.54ZM132.034 21.82H127.414V24H129.714V28.22C128.834 28.9 127.834 29.56 126.974 30.06L128.134 32.54C129.234 31.7 130.114 30.92 130.994 30.14C132.294 31.7 133.934 32.26 136.394 32.36C138.774 32.46 142.794 32.42 145.194 32.3C145.314 31.62 145.674 30.46 145.934 29.9C143.274 30.1 138.774 30.16 136.434 30.06C134.354 29.98 132.854 29.44 132.034 28.1V21.82ZM150.754 15.86L150.854 18.44C151.374 18.36 152.074 18.3 152.474 18.28C153.394 18.22 155.114 18.16 155.914 18.12C155.454 19.06 154.874 20.42 154.314 21.74C150.294 21.92 147.474 24.28 147.474 27.38C147.474 29.4 148.794 30.62 150.554 30.62C151.914 30.62 152.874 30.06 153.674 28.86C154.374 27.76 155.214 25.76 155.934 24.06C157.654 24.3 159.254 24.9 160.674 25.68C160.014 27.5 158.614 29.4 155.594 30.7L157.714 32.44C160.394 31.04 161.914 29.28 162.794 27.02C163.414 27.48 163.994 27.94 164.514 28.42L165.674 25.64C165.094 25.24 164.374 24.78 163.534 24.3C163.734 23.18 163.834 21.94 163.914 20.6L161.294 20.3C161.354 20.9 161.354 21.7 161.294 22.48C161.274 22.7 161.254 22.92 161.234 23.16C159.934 22.6 158.454 22.12 156.894 21.88C157.614 20.18 158.374 18.44 158.894 17.58C159.054 17.3 159.294 17.04 159.574 16.74L157.974 15.5C157.634 15.64 157.114 15.76 156.614 15.78C155.674 15.86 153.554 15.96 152.414 15.96C151.974 15.96 151.294 15.92 150.754 15.86ZM149.814 27C149.814 25.74 151.074 24.38 153.314 24.04C152.754 25.3 152.214 26.56 151.694 27.3C151.334 27.8 151.054 28 150.654 28C150.194 28 149.814 27.66 149.814 27Z" fill="white"/>
</svg>
